<svg width="48" height="48" viewBox="0 0 48 48" fill="none" xmlns="http://www.w3.org/2000/svg">
<path d="M23.83 47.66C36.9909 47.66 47.66 36.9909 47.66 23.83C47.66 10.6691 36.9909 0 23.83 0C10.6691 0 0 10.6691 0 23.83C0 36.9909 10.6691 47.66 23.83 47.66Z" fill="url(#paint0_linear_310_1638)"/>
<path d="M35.4098 20.81C35.4098 18 33.1398 15.73 30.3298 15.73H17.3398C14.5298 15.73 12.2598 18 12.2598 20.81V26.85C12.2598 29.66 14.5298 31.93 17.3398 31.93H30.3298C33.1398 31.93 35.4098 29.66 35.4098 26.85V20.81ZM27.7698 24.28L21.9498 27.16C21.7198 27.28 20.9498 27.12 20.9498 26.86V20.94C20.9498 20.68 21.7298 20.51 21.9598 20.64L27.5398 23.67C27.7698 23.8 28.0198 24.14 27.7798 24.27L27.7698 24.28Z" fill="white"/>
<defs>
<linearGradient id="paint0_linear_310_1638" x1="6.98" y1="6.98" x2="40.68" y2="40.68" gradientUnits="userSpaceOnUse">
<stop stop-color="#FF0000"/>
<stop offset="1" stop-color="#9B0000"/>
</linearGradient>
</defs>
</svg>
