<svg width="246" height="117" viewBox="0 0 246 117" fill="none" xmlns="http://www.w3.org/2000/svg">
<path fill-rule="evenodd" clip-rule="evenodd" d="M245.199 117C245.2 116.833 245.2 116.667 245.2 116.5C245.2 52.1588 190.31 0 122.6 0C54.8899 0 0 52.1588 0 116.5C0 116.667 0.000368671 116.833 0.00110528 117H245.199Z" fill="#E50064"/>
<path d="M80.2611 80.845L84.1051 59.548C84.1258 59.4653 84.1774 59.424 84.2601 59.424H88.7551C88.8378 59.424 88.8894 59.4653 88.9101 59.548L92.5991 80.845C92.6198 80.9483 92.5784 81 92.4751 81H89.0341C88.9514 81 88.8998 80.9483 88.8791 80.845L88.5381 78.582H84.3221L83.9811 80.845C83.9604 80.9483 83.9088 81 83.8261 81H80.3851C80.3024 81 80.2611 80.9483 80.2611 80.845ZM84.9421 75.265H87.9181L86.6471 66.554L86.4611 65.407L86.3371 66.554L84.9421 75.265ZM100.482 81.31C99.3656 81.31 98.3529 81.031 97.4436 80.473C96.5343 79.915 95.8006 79.171 95.2426 78.241C94.7053 77.2903 94.4366 76.2363 94.4366 75.079V65.252C94.4366 64.136 94.7053 63.113 95.2426 62.183C95.8006 61.2323 96.5343 60.478 97.4436 59.92C98.3736 59.362 99.3863 59.083 100.482 59.083C101.618 59.083 102.641 59.362 103.551 59.92C104.481 60.4573 105.214 61.191 105.752 62.121C106.289 63.051 106.558 64.0947 106.558 65.252V66.678C106.558 66.7607 106.506 66.802 106.403 66.802H102.931C102.848 66.802 102.807 66.7607 102.807 66.678V65.5C102.807 64.7147 102.579 64.0637 102.125 63.547C101.691 63.0303 101.143 62.772 100.482 62.772C99.8823 62.772 99.3449 63.02 98.8696 63.516C98.4149 64.012 98.1876 64.5907 98.1876 65.252V75.079C98.1876 75.761 98.4149 76.35 98.8696 76.846C99.3243 77.3213 99.8616 77.559 100.482 77.559C101.143 77.559 101.691 77.3213 102.125 76.846C102.579 76.3707 102.807 75.7817 102.807 75.079V73.56H100.637C100.533 73.56 100.482 73.5083 100.482 73.405V69.933C100.482 69.8297 100.533 69.778 100.637 69.778H106.434C106.516 69.778 106.558 69.8297 106.558 69.933V75.079C106.558 76.2363 106.279 77.2903 105.721 78.241C105.183 79.171 104.46 79.915 103.551 80.473C102.641 81.031 101.618 81.31 100.482 81.31ZM109.819 81C109.736 81 109.695 80.9483 109.695 80.845L109.726 59.548C109.726 59.4653 109.767 59.424 109.85 59.424H119.801C119.883 59.424 119.925 59.4757 119.925 59.579V63.051C119.925 63.1337 119.883 63.175 119.801 63.175H113.446V68.011H119.801C119.883 68.011 119.925 68.0523 119.925 68.135L119.956 71.638C119.956 71.7207 119.914 71.762 119.832 71.762H113.446V77.187H119.832C119.914 77.187 119.956 77.2387 119.956 77.342V80.876C119.956 80.9587 119.914 81 119.832 81H109.819ZM123.921 81C123.756 81 123.673 80.9277 123.673 80.783L123.642 59.672C123.642 59.5067 123.725 59.424 123.89 59.424H126.68L131.919 71.638L131.764 59.672C131.764 59.5067 131.857 59.424 132.043 59.424H135.112C135.236 59.424 135.298 59.5067 135.298 59.672L135.329 80.814C135.329 80.938 135.278 81 135.174 81H132.446L127.083 69.592L127.3 80.752C127.3 80.9173 127.207 81 127.021 81H123.921ZM139.107 81C139.004 81 138.952 80.9483 138.952 80.845L139.014 59.548C139.014 59.4653 139.055 59.424 139.138 59.424L144.935 59.393C146.072 59.3723 147.105 59.641 148.035 60.199C148.986 60.757 149.74 61.5113 150.298 62.462C150.856 63.392 151.135 64.4253 151.135 65.562V74.459C151.135 75.6577 150.846 76.753 150.267 77.745C149.688 78.7163 148.913 79.4913 147.942 80.07C146.971 80.6487 145.875 80.9483 144.656 80.969L139.107 81ZM142.734 77.187H144.656C145.421 77.187 146.061 76.9183 146.578 76.381C147.115 75.8437 147.384 75.203 147.384 74.459V65.531C147.384 64.8697 147.136 64.3013 146.64 63.826C146.165 63.33 145.596 63.0923 144.935 63.113L142.765 63.144L142.734 77.187ZM152.845 80.845L156.689 59.548C156.709 59.4653 156.761 59.424 156.844 59.424H161.339C161.421 59.424 161.473 59.4653 161.494 59.548L165.183 80.845C165.203 80.9483 165.162 81 165.059 81H161.618C161.535 81 161.483 80.9483 161.463 80.845L161.122 78.582H156.906L156.565 80.845C156.544 80.9483 156.492 81 156.41 81H152.969C152.886 81 152.845 80.9483 152.845 80.845ZM157.526 75.265H160.502L159.231 66.554L159.045 65.407L158.921 66.554L157.526 75.265Z" fill="white"/>
</svg>
