<svg width="246" height="117" viewBox="0 0 246 117" fill="none" xmlns="http://www.w3.org/2000/svg">
<path fill-rule="evenodd" clip-rule="evenodd" d="M245.399 117C245.399 116.833 245.4 116.667 245.4 116.5C245.4 52.1588 190.51 0 122.8 0C55.0896 0 0.199707 52.1588 0.199707 116.5C0.199707 116.667 0.200076 116.833 0.200812 117H245.399Z" fill="#1B9ECE"/>
<path d="M82.3549 81C82.2696 81 82.2269 80.9467 82.2269 80.84L82.2909 58.856C82.2909 58.7707 82.3336 58.728 82.4189 58.728H88.5629C89.7789 58.728 90.8669 59.0267 91.8269 59.624C92.7869 60.2 93.5442 60.968 94.0989 61.928C94.6536 62.888 94.9309 63.9333 94.9309 65.064C94.9309 65.9813 94.7176 66.8347 94.2909 67.624C93.8856 68.4133 93.3949 69.0533 92.8189 69.544C93.4376 70.1627 93.9176 70.8773 94.2589 71.688C94.6002 72.4987 94.7709 73.352 94.7709 74.248C94.7709 75.4853 94.4722 76.616 93.8749 77.64C93.2776 78.664 92.4669 79.4853 91.4429 80.104C90.4402 80.7013 89.3202 81 88.0829 81H82.3549ZM86.1309 67.56H88.5629C89.3096 67.56 89.9069 67.304 90.3549 66.792C90.8242 66.2587 91.0589 65.6827 91.0589 65.064C91.0589 64.3813 90.8136 63.7947 90.3229 63.304C89.8322 62.792 89.2456 62.536 88.5629 62.536H86.1309V67.56ZM86.0989 77.096H88.0829C88.8509 77.096 89.5122 76.8187 90.0669 76.264C90.6216 75.688 90.8989 75.016 90.8989 74.248C90.8989 73.48 90.6216 72.8187 90.0669 72.264C89.5122 71.7093 88.8509 71.432 88.0829 71.432H86.1309L86.0989 77.096ZM103.951 81.32C102.799 81.32 101.743 81.032 100.783 80.456C99.844 79.8587 99.0866 79.08 98.5106 78.12C97.9346 77.1387 97.6466 76.0613 97.6466 74.888L97.6786 64.744C97.6786 63.5707 97.956 62.504 98.5106 61.544C99.0866 60.584 99.8546 59.816 100.815 59.24C101.775 58.664 102.82 58.376 103.951 58.376C105.103 58.376 106.148 58.664 107.087 59.24C108.025 59.816 108.772 60.584 109.327 61.544C109.903 62.504 110.191 63.5707 110.191 64.744L110.223 74.888C110.223 76.0613 109.935 77.1387 109.359 78.12C108.804 79.08 108.047 79.8587 107.087 80.456C106.148 81.032 105.103 81.32 103.951 81.32ZM103.951 77.448C104.591 77.448 105.145 77.192 105.615 76.68C106.105 76.1467 106.351 75.5493 106.351 74.888L106.319 64.744C106.319 64.04 106.095 63.4427 105.647 62.952C105.199 62.4613 104.633 62.216 103.951 62.216C103.289 62.216 102.724 62.4613 102.255 62.952C101.785 63.4213 101.551 64.0187 101.551 64.744V74.888C101.551 75.592 101.785 76.2 102.255 76.712C102.724 77.2027 103.289 77.448 103.951 77.448ZM119.691 81.32C118.56 81.32 117.515 81.032 116.555 80.456C115.595 79.8587 114.827 79.0693 114.251 78.088C113.696 77.1067 113.419 76.0293 113.419 74.856L113.483 58.856C113.483 58.7707 113.526 58.728 113.611 58.728H117.195C117.28 58.728 117.323 58.7707 117.323 58.856V74.856C117.323 75.5813 117.547 76.2 117.995 76.712C118.464 77.2027 119.03 77.448 119.691 77.448C120.374 77.448 120.939 77.2027 121.387 76.712C121.856 76.2 122.091 75.5813 122.091 74.856V58.856C122.091 58.7707 122.134 58.728 122.219 58.728H125.803C125.888 58.728 125.931 58.7707 125.931 58.856L125.995 74.856C125.995 76.0507 125.707 77.1387 125.131 78.12C124.576 79.1013 123.819 79.88 122.859 80.456C121.92 81.032 120.864 81.32 119.691 81.32ZM132.682 81C132.597 81 132.554 80.9467 132.554 80.84V62.6H128.394C128.287 62.6 128.234 62.5467 128.234 62.44L128.266 58.856C128.266 58.7707 128.309 58.728 128.394 58.728H140.554C140.661 58.728 140.714 58.7707 140.714 58.856V62.44C140.714 62.5467 140.671 62.6 140.586 62.6H136.394L136.426 80.84C136.426 80.9467 136.383 81 136.298 81H132.682ZM143.414 81C143.308 81 143.254 80.9467 143.254 80.84L143.286 58.856C143.286 58.7707 143.329 58.728 143.414 58.728H146.998C147.084 58.728 147.126 58.7707 147.126 58.856L147.158 80.84C147.158 80.9467 147.116 81 147.03 81H143.414ZM151.061 81C150.976 81 150.933 80.9467 150.933 80.84L150.997 58.888C150.997 58.7813 151.04 58.728 151.125 58.728H154.709C154.794 58.728 154.837 58.7813 154.837 58.888V66.472L159.861 58.856C159.925 58.7707 160 58.728 160.085 58.728H163.765C163.85 58.728 163.872 58.7707 163.829 58.856L158.293 67.688L164.501 80.872C164.544 80.9573 164.49 81 164.341 81H160.437C160.33 81 160.266 80.9573 160.245 80.872L155.925 71.464L154.805 73.224V80.84C154.805 80.9467 154.762 81 154.677 81H151.061Z" fill="white"/>
</svg>
