<svg width="246" height="117" viewBox="0 0 246 117" fill="none" xmlns="http://www.w3.org/2000/svg">
<path fill-rule="evenodd" clip-rule="evenodd" d="M245.199 117C245.2 116.833 245.2 116.667 245.2 116.5C245.2 52.1588 190.31 0 122.6 0C54.8899 0 0 52.1588 0 116.5C0 116.667 0.000368671 116.833 0.00110528 117H245.199Z" fill="#4296CC"/>
<path d="M121.154 55.904C121.048 55.904 120.994 55.8507 120.994 55.744V50.016H116.45C116.322 50.016 116.258 49.9627 116.258 49.856V47.328C116.258 47.3067 116.269 47.2747 116.29 47.232C116.333 47.168 116.386 47.136 116.45 47.136H120.994V41.312C120.994 41.2693 121.048 41.248 121.154 41.248H123.842C123.928 41.248 123.97 41.2693 123.97 41.312V47.136H128.738C128.845 47.136 128.898 47.2 128.898 47.328V49.856C128.898 49.8987 128.877 49.9413 128.834 49.984C128.792 50.0053 128.76 50.016 128.738 50.016H123.97V55.744C123.97 55.8507 123.928 55.904 123.842 55.904H121.154ZM98.3503 100C98.2436 100 98.1903 99.9467 98.1903 99.84L98.2223 77.856C98.2223 77.7707 98.265 77.728 98.3503 77.728H101.934C102.02 77.728 102.062 77.7707 102.062 77.856L102.094 99.84C102.094 99.9467 102.052 100 101.966 100H98.3503ZM106.157 100C105.986 100 105.901 99.9253 105.901 99.776L105.869 77.984C105.869 77.8133 105.954 77.728 106.125 77.728H109.005L114.413 90.336L114.253 77.984C114.253 77.8133 114.349 77.728 114.541 77.728H117.709C117.837 77.728 117.901 77.8133 117.901 77.984L117.933 99.808C117.933 99.936 117.88 100 117.773 100H114.957L109.421 88.224L109.645 99.744C109.645 99.9147 109.549 100 109.357 100H106.157ZM121.833 100C121.726 100 121.673 99.9467 121.673 99.84L121.737 77.856C121.737 77.7707 121.779 77.728 121.865 77.728H132.105C132.211 77.728 132.265 77.7707 132.265 77.856V81.472C132.265 81.5573 132.222 81.6 132.137 81.6H125.577V86.56H132.137C132.222 86.56 132.265 86.6133 132.265 86.72L132.297 90.336C132.297 90.4213 132.243 90.464 132.137 90.464H125.577V99.84C125.577 99.9467 125.523 100 125.417 100H121.833ZM140.865 100.32C139.713 100.32 138.657 100.032 137.697 99.456C136.759 98.8587 136.001 98.08 135.425 97.12C134.849 96.1387 134.561 95.0613 134.561 93.888L134.593 83.744C134.593 82.5707 134.871 81.504 135.425 80.544C136.001 79.584 136.769 78.816 137.729 78.24C138.689 77.664 139.735 77.376 140.865 77.376C142.017 77.376 143.063 77.664 144.001 78.24C144.94 78.816 145.687 79.584 146.241 80.544C146.817 81.504 147.105 82.5707 147.105 83.744L147.137 93.888C147.137 95.0613 146.849 96.1387 146.273 97.12C145.719 98.08 144.961 98.8587 144.001 99.456C143.063 100.032 142.017 100.32 140.865 100.32ZM140.865 96.448C141.505 96.448 142.06 96.192 142.529 95.68C143.02 95.1467 143.265 94.5493 143.265 93.888L143.233 83.744C143.233 83.04 143.009 82.4427 142.561 81.952C142.113 81.4613 141.548 81.216 140.865 81.216C140.204 81.216 139.639 81.4613 139.169 81.952C138.7 82.4213 138.465 83.0187 138.465 83.744V93.888C138.465 94.592 138.7 95.2 139.169 95.712C139.639 96.2027 140.204 96.448 140.865 96.448Z" fill="white"/>
</svg>
