<svg width="246" height="117" viewBox="0 0 246 117" fill="none" xmlns="http://www.w3.org/2000/svg">
<path fill-rule="evenodd" clip-rule="evenodd" d="M245.399 117C245.4 116.833 245.4 116.667 245.4 116.5C245.4 52.1588 190.51 0 122.8 0C55.0901 0 0.200195 52.1588 0.200195 116.5C0.200195 116.667 0.200564 116.833 0.201301 117H245.399Z" fill="#E9B322"/>
<path d="M91.9243 60C91.8389 60 91.7963 59.9467 91.7963 59.84L91.8603 37.856C91.8603 37.7707 91.9029 37.728 91.9883 37.728H95.8923C95.9776 37.728 96.0523 37.7707 96.1163 37.856L99.0283 42.08L101.94 37.856C102.004 37.7707 102.079 37.728 102.164 37.728H106.1C106.186 37.728 106.228 37.7707 106.228 37.856L106.292 59.84C106.292 59.9467 106.25 60 106.164 60H102.548C102.463 60 102.42 59.9467 102.42 59.84L102.388 43.52L99.0283 48.384L95.7003 43.52L95.6683 59.84C95.6683 59.9467 95.6256 60 95.5403 60H91.9243ZM108.856 59.84L112.824 37.856C112.845 37.7707 112.898 37.728 112.984 37.728H117.624C117.709 37.728 117.762 37.7707 117.784 37.856L121.592 59.84C121.613 59.9467 121.57 60 121.464 60H117.912C117.826 60 117.773 59.9467 117.752 59.84L117.4 57.504H113.048L112.696 59.84C112.674 59.9467 112.621 60 112.536 60H108.984C108.898 60 108.856 59.9467 108.856 59.84ZM113.688 54.08H116.76L115.448 45.088L115.256 43.904L115.128 45.088L113.688 54.08ZM124.688 60C124.603 60 124.56 59.9467 124.56 59.84L124.624 37.856C124.624 37.7707 124.667 37.728 124.752 37.728H128.656C128.741 37.728 128.816 37.7707 128.88 37.856L131.792 42.08L134.704 37.856C134.768 37.7707 134.843 37.728 134.928 37.728H138.864C138.949 37.728 138.992 37.7707 138.992 37.856L139.056 59.84C139.056 59.9467 139.013 60 138.928 60H135.312C135.227 60 135.184 59.9467 135.184 59.84L135.152 43.52L131.792 48.384L128.464 43.52L128.432 59.84C128.432 59.9467 128.389 60 128.304 60H124.688ZM141.62 59.84L145.588 37.856C145.609 37.7707 145.662 37.728 145.748 37.728H150.388C150.473 37.728 150.526 37.7707 150.548 37.856L154.356 59.84C154.377 59.9467 154.334 60 154.228 60H150.676C150.59 60 150.537 59.9467 150.516 59.84L150.164 57.504H145.812L145.46 59.84C145.438 59.9467 145.385 60 145.3 60H141.748C141.662 60 141.62 59.9467 141.62 59.84ZM146.452 54.08H149.524L148.212 45.088L148.02 43.904L147.892 45.088L146.452 54.08ZM80.7299 100C80.6446 100 80.6019 99.9467 80.6019 99.84L80.6339 77.856C80.6339 77.7707 80.6766 77.728 80.7619 77.728H91.0339C91.1192 77.728 91.1619 77.7813 91.1619 77.888V81.472C91.1619 81.5573 91.1192 81.6 91.0339 81.6H84.4739V86.592H91.0339C91.1192 86.592 91.1619 86.6347 91.1619 86.72L91.1939 90.336C91.1939 90.4213 91.1512 90.464 91.0659 90.464H84.4739V96.064H91.0659C91.1512 96.064 91.1939 96.1173 91.1939 96.224V99.872C91.1939 99.9573 91.1512 100 91.0659 100H80.7299ZM98.5834 100C98.4981 100 98.4447 99.9467 98.4234 99.84L94.0074 77.856C93.986 77.7707 94.0287 77.728 94.1354 77.728H97.7514C97.8367 77.728 97.8901 77.7707 97.9114 77.856L100.535 92.512L103.095 77.856C103.117 77.7707 103.17 77.728 103.255 77.728H106.839C106.946 77.728 106.989 77.7707 106.967 77.856L102.615 99.84C102.594 99.9467 102.541 100 102.455 100H98.5834ZM109.931 100C109.846 100 109.803 99.9467 109.803 99.84L109.835 77.856C109.835 77.7707 109.878 77.728 109.963 77.728H120.235C120.32 77.728 120.363 77.7813 120.363 77.888V81.472C120.363 81.5573 120.32 81.6 120.235 81.6H113.675V86.592H120.235C120.32 86.592 120.363 86.6347 120.363 86.72L120.395 90.336C120.395 90.4213 120.352 90.464 120.267 90.464H113.675V96.064H120.267C120.352 96.064 120.395 96.1173 120.395 96.224V99.872C120.395 99.9573 120.352 100 120.267 100H109.931ZM124.489 100C124.318 100 124.233 99.9253 124.233 99.776L124.201 77.984C124.201 77.8133 124.286 77.728 124.457 77.728H127.337L132.745 90.336L132.585 77.984C132.585 77.8133 132.681 77.728 132.873 77.728H136.041C136.169 77.728 136.233 77.8133 136.233 77.984L136.265 99.808C136.265 99.936 136.211 100 136.105 100H133.289L127.753 88.224L127.977 99.744C127.977 99.9147 127.881 100 127.689 100H124.489ZM143.204 100C143.119 100 143.076 99.9467 143.076 99.84V81.6H138.916C138.81 81.6 138.756 81.5467 138.756 81.44L138.788 77.856C138.788 77.7707 138.831 77.728 138.916 77.728H151.076C151.183 77.728 151.236 77.7707 151.236 77.856V81.44C151.236 81.5467 151.194 81.6 151.108 81.6H146.916L146.948 99.84C146.948 99.9467 146.906 100 146.82 100H143.204ZM159.061 100.32C157.909 100.32 156.853 100.032 155.893 99.456C154.954 98.8587 154.197 98.08 153.621 97.12C153.066 96.1387 152.789 95.0613 152.789 93.888V92.416C152.789 92.3093 152.842 92.256 152.949 92.256H156.533C156.618 92.256 156.661 92.3093 156.661 92.416V93.888C156.661 94.592 156.895 95.2 157.365 95.712C157.834 96.2027 158.399 96.448 159.061 96.448C159.722 96.448 160.287 96.192 160.757 95.68C161.226 95.168 161.461 94.5707 161.461 93.888C161.461 93.0987 160.949 92.416 159.925 91.84C159.583 91.648 159.05 91.3493 158.325 90.944C157.599 90.5387 156.917 90.1547 156.277 89.792C155.103 89.1093 154.229 88.256 153.653 87.232C153.098 86.1867 152.821 85.0133 152.821 83.712C152.821 82.5173 153.109 81.4507 153.685 80.512C154.261 79.552 155.018 78.7947 155.957 78.24C156.917 77.6853 157.951 77.408 159.061 77.408C160.191 77.408 161.226 77.696 162.165 78.272C163.125 78.8267 163.882 79.584 164.437 80.544C165.013 81.4827 165.301 82.5387 165.301 83.712V86.336C165.301 86.4213 165.258 86.464 165.173 86.464H161.589C161.503 86.464 161.461 86.4213 161.461 86.336L161.429 83.712C161.429 82.9653 161.194 82.3573 160.725 81.888C160.255 81.4187 159.701 81.184 159.061 81.184C158.399 81.184 157.834 81.44 157.365 81.952C156.895 82.4427 156.661 83.0293 156.661 83.712C156.661 84.416 156.81 85.0027 157.109 85.472C157.407 85.9413 157.951 86.3893 158.741 86.816C158.847 86.88 159.05 86.9973 159.349 87.168C159.669 87.3173 160.01 87.4987 160.373 87.712C160.735 87.904 161.055 88.0747 161.333 88.224C161.631 88.3733 161.813 88.4693 161.877 88.512C162.943 89.1093 163.786 89.8453 164.405 90.72C165.023 91.5733 165.333 92.6293 165.333 93.888C165.333 95.104 165.045 96.2027 164.469 97.184C163.914 98.144 163.157 98.912 162.197 99.488C161.258 100.043 160.213 100.32 159.061 100.32Z" fill="white"/>
</svg>
