<svg width="246" height="117" viewBox="0 0 246 117" fill="none" xmlns="http://www.w3.org/2000/svg">
<path fill-rule="evenodd" clip-rule="evenodd" d="M245.199 117C245.2 116.833 245.2 116.667 245.2 116.5C245.2 52.1588 190.31 0 122.6 0C54.8899 0 0 52.1588 0 116.5C0 116.667 0.000368671 116.833 0.00110528 117H245.199Z" fill="#25B15F"/>
<path d="M80.4679 81C80.3613 81 80.3079 80.9467 80.3079 80.84L80.3719 58.856C80.3719 58.7707 80.4146 58.728 80.4999 58.728H86.6439C88.6066 58.728 90.1533 59.3253 91.2839 60.52C92.4359 61.7147 93.0119 63.336 93.0119 65.384C93.0119 66.8987 92.7133 68.2107 92.1159 69.32C91.5186 70.4293 90.7399 71.2827 89.7799 71.88C88.8199 72.4773 87.7746 72.776 86.6439 72.776H84.2119V80.84C84.2119 80.9467 84.1586 81 84.0519 81H80.4679ZM84.2119 68.904H86.6439C87.3266 68.904 87.9133 68.584 88.4039 67.944C88.9159 67.2827 89.1719 66.4293 89.1719 65.384C89.1719 64.552 88.9479 63.8693 88.4999 63.336C88.0519 62.8027 87.4333 62.536 86.6439 62.536L84.2119 62.568V68.904ZM96.2709 81C96.1856 81 96.1429 80.9467 96.1429 80.84L96.2069 58.856C96.2069 58.7707 96.2496 58.728 96.3349 58.728H102.799C103.951 58.728 105.007 59.016 105.967 59.592C106.948 60.1467 107.727 60.904 108.303 61.864C108.879 62.8027 109.167 63.8693 109.167 65.064C109.167 65.8533 109.05 66.568 108.815 67.208C108.58 67.8267 108.303 68.36 107.983 68.808C107.663 69.2347 107.375 69.5547 107.119 69.768C108.271 71.048 108.847 72.552 108.847 74.28L108.879 80.84C108.879 80.9467 108.826 81 108.719 81H105.103C105.018 81 104.975 80.968 104.975 80.904V74.28C104.975 73.512 104.698 72.8507 104.143 72.296C103.61 71.72 102.948 71.432 102.159 71.432H100.047L100.015 80.84C100.015 80.9467 99.9723 81 99.8869 81H96.2709ZM100.047 67.592H102.799C103.46 67.592 104.047 67.3467 104.559 66.856C105.071 66.3653 105.327 65.768 105.327 65.064C105.327 64.3813 105.071 63.7947 104.559 63.304C104.068 62.8133 103.482 62.568 102.799 62.568H100.047V67.592ZM112.668 81C112.583 81 112.54 80.9467 112.54 80.84L112.572 58.856C112.572 58.7707 112.615 58.728 112.7 58.728H122.972C123.058 58.728 123.1 58.7813 123.1 58.888V62.472C123.1 62.5573 123.058 62.6 122.972 62.6H116.412V67.592H122.972C123.058 67.592 123.1 67.6347 123.1 67.72L123.132 71.336C123.132 71.4213 123.09 71.464 123.004 71.464H116.412V77.064H123.004C123.09 77.064 123.132 77.1173 123.132 77.224V80.872C123.132 80.9573 123.09 81 123.004 81H112.668ZM132.19 81.32C131.038 81.32 129.982 81.032 129.022 80.456C128.084 79.8587 127.326 79.08 126.75 78.12C126.196 77.1387 125.918 76.0613 125.918 74.888V73.416C125.918 73.3093 125.972 73.256 126.078 73.256H129.662C129.748 73.256 129.79 73.3093 129.79 73.416V74.888C129.79 75.592 130.025 76.2 130.494 76.712C130.964 77.2027 131.529 77.448 132.19 77.448C132.852 77.448 133.417 77.192 133.886 76.68C134.356 76.168 134.59 75.5707 134.59 74.888C134.59 74.0987 134.078 73.416 133.054 72.84C132.713 72.648 132.18 72.3493 131.454 71.944C130.729 71.5387 130.046 71.1547 129.406 70.792C128.233 70.1093 127.358 69.256 126.782 68.232C126.228 67.1867 125.95 66.0133 125.95 64.712C125.95 63.5173 126.238 62.4507 126.814 61.512C127.39 60.552 128.148 59.7947 129.086 59.24C130.046 58.6853 131.081 58.408 132.19 58.408C133.321 58.408 134.356 58.696 135.294 59.272C136.254 59.8267 137.012 60.584 137.566 61.544C138.142 62.4827 138.43 63.5387 138.43 64.712V67.336C138.43 67.4213 138.388 67.464 138.302 67.464H134.718C134.633 67.464 134.59 67.4213 134.59 67.336L134.558 64.712C134.558 63.9653 134.324 63.3573 133.854 62.888C133.385 62.4187 132.83 62.184 132.19 62.184C131.529 62.184 130.964 62.44 130.494 62.952C130.025 63.4427 129.79 64.0293 129.79 64.712C129.79 65.416 129.94 66.0027 130.238 66.472C130.537 66.9413 131.081 67.3893 131.87 67.816C131.977 67.88 132.18 67.9973 132.478 68.168C132.798 68.3173 133.14 68.4987 133.502 68.712C133.865 68.904 134.185 69.0747 134.462 69.224C134.761 69.3733 134.942 69.4693 135.006 69.512C136.073 70.1093 136.916 70.8453 137.534 71.72C138.153 72.5733 138.462 73.6293 138.462 74.888C138.462 76.104 138.174 77.2027 137.598 78.184C137.044 79.144 136.286 79.912 135.326 80.488C134.388 81.0427 133.342 81.32 132.19 81.32ZM144.692 81C144.606 81 144.564 80.9467 144.564 80.84V62.6H140.404C140.297 62.6 140.244 62.5467 140.244 62.44L140.276 58.856C140.276 58.7707 140.318 58.728 140.404 58.728H152.564C152.67 58.728 152.724 58.7707 152.724 58.856V62.44C152.724 62.5467 152.681 62.6 152.596 62.6H148.404L148.436 80.84C148.436 80.9467 148.393 81 148.308 81H144.692ZM152.707 80.84L156.675 58.856C156.697 58.7707 156.75 58.728 156.835 58.728H161.475C161.561 58.728 161.614 58.7707 161.635 58.856L165.443 80.84C165.465 80.9467 165.422 81 165.315 81H161.763C161.678 81 161.625 80.9467 161.603 80.84L161.251 78.504H156.899L156.547 80.84C156.526 80.9467 156.473 81 156.387 81H152.835C152.75 81 152.707 80.9467 152.707 80.84ZM157.539 75.08H160.611L159.299 66.088L159.107 64.904L158.979 66.088L157.539 75.08Z" fill="white"/>
</svg>
